<?xml version="1.0" standalone="no"?>
<!DOCTYPE svg PUBLIC "-//W3C//DTD SVG 20010904//EN"
 "http://www.w3.org/TR/2001/REC-SVG-20010904/DTD/svg10.dtd">
<svg version="1.0" xmlns="http://www.w3.org/2000/svg"
 width="1034.000000pt" height="59.000000pt" viewBox="0 0 1034.000000 59.000000"
 preserveAspectRatio="xMidYMid meet">

<g transform="translate(0.000000,59.000000) scale(0.100000,-0.100000)"
fill="#fff" stroke="none">
<path d="M24 576 c-18 -13 -19 -30 -22 -275 -3 -251 -2 -261 18 -281 24 -24
49 -26 76 -6 17 13 19 31 24 233 l5 218 153 3 c178 3 192 -1 192 -58 0 -52
-17 -60 -122 -60 -114 0 -151 -28 -118 -91 10 -17 22 -19 116 -19 83 0 112 4
142 19 51 26 78 58 91 107 28 106 -31 192 -148 214 -85 16 -383 13 -407 -4z"/>
<path d="M829 569 c-20 -20 -21 -29 -17 -187 3 -147 6 -173 26 -217 49 -108
134 -159 268 -159 70 -1 88 3 139 29 67 34 118 93 137 158 7 25 12 108 12 205
1 151 -1 165 -18 178 -27 19 -60 18 -79 -4 -13 -14 -16 -49 -19 -184 -3 -185
-7 -198 -78 -245 -47 -32 -143 -32 -190 -1 -70 48 -74 61 -80 250 -5 153 -7
171 -24 184 -28 20 -53 17 -77 -7z"/>
<path d="M1640 570 c-19 -19 -20 -33 -20 -275 0 -242 1 -256 20 -275 19 -19
33 -20 271 -20 153 0 258 4 270 10 22 12 27 83 7 97 -7 4 -110 10 -228 13
l-215 5 -3 57 -3 58 115 0 c104 0 116 2 126 19 15 29 12 49 -10 71 -17 17 -33
20 -125 20 l-105 0 0 54 c0 33 5 58 13 63 6 4 109 10 227 13 l215 5 3 40 c5
64 2 65 -285 65 -240 0 -254 -1 -273 -20z"/>
<path d="M2455 577 c-19 -15 -20 -29 -23 -276 -3 -255 -2 -261 19 -282 20 -20
27 -21 223 -17 186 3 205 5 248 26 27 14 56 38 68 56 37 62 19 175 -31 191
-20 7 -19 8 11 33 81 69 49 211 -60 260 -51 23 -426 30 -455 9z m426 -117 c14
-8 19 -21 19 -50 0 -52 -17 -60 -122 -60 -114 0 -151 -28 -118 -91 9 -16 22
-19 98 -19 109 0 136 -12 140 -62 5 -54 -12 -59 -190 -56 l-153 3 -3 160 c-1
87 0 165 2 172 7 16 297 19 327 3z"/>
<path d="M3260 570 c-20 -20 -21 -30 -18 -281 3 -245 4 -262 22 -275 16 -11
70 -14 271 -14 285 0 288 1 283 65 l-3 40 -217 5 c-119 3 -220 9 -225 13 -4 5
-10 105 -13 224 -5 198 -7 216 -24 229 -27 20 -52 18 -76 -6z"/>
<path d="M4290 578 c-20 -11 -44 -61 -128 -272 -56 -142 -104 -268 -105 -280
-2 -18 4 -21 44 -24 29 -2 50 2 56 10 6 7 43 99 83 203 84 220 88 231 101 218
6 -6 45 -101 89 -213 44 -112 85 -207 92 -212 22 -13 88 -9 94 6 6 15 -200
533 -220 554 -18 19 -78 24 -106 10z"/>
<path d="M5534 581 c-15 -7 -49 -79 -132 -286 -61 -153 -109 -282 -106 -286 8
-14 90 -11 101 4 6 6 43 98 83 202 90 235 88 231 104 214 7 -8 46 -100 86
-206 39 -105 80 -199 89 -207 21 -19 69 -20 92 -3 23 17 37 49 114 250 37 98
73 176 78 174 6 -2 46 -95 89 -207 43 -112 84 -210 90 -217 6 -7 30 -13 54
-13 35 0 44 3 43 18 0 9 -48 139 -107 287 l-107 270 -36 9 c-25 6 -44 5 -64
-5 -25 -12 -39 -41 -109 -216 -45 -112 -84 -203 -87 -203 -3 0 -41 89 -84 198
-43 108 -83 203 -90 210 -15 17 -74 24 -101 13z"/>
<path d="M6758 577 c-173 -49 -253 -239 -177 -418 43 -99 135 -153 264 -154
68 0 89 4 137 28 104 51 151 133 151 262 0 127 -47 211 -146 260 -65 31 -162
41 -229 22z m172 -122 c61 -31 90 -86 90 -169 0 -61 -25 -107 -79 -143 -48
-32 -144 -32 -192 0 -57 38 -79 81 -79 152 0 67 21 110 71 148 50 36 130 42
189 12z"/>
<path d="M7376 568 c-21 -30 -20 -54 4 -78 17 -17 33 -20 109 -20 61 0 92 -4
100 -13 7 -9 12 -90 13 -228 l3 -214 27 -9 c18 -7 35 -6 53 2 l25 12 0 213 c0
152 3 216 12 225 7 7 39 12 73 12 73 0 105 18 105 60 0 58 -8 60 -270 60 -235
0 -239 0 -254 -22z"/>
<path d="M8338 577 c-173 -49 -253 -239 -177 -418 43 -99 135 -153 264 -154
68 0 89 4 137 28 104 51 151 133 151 262 0 127 -47 211 -146 260 -65 31 -162
41 -229 22z m172 -122 c61 -31 90 -86 90 -169 0 -61 -25 -107 -79 -143 -48
-32 -144 -32 -192 0 -57 38 -79 81 -79 152 0 67 21 110 71 148 50 36 130 42
189 12z"/>
<path d="M8965 577 c-19 -15 -20 -29 -23 -276 -3 -251 -2 -261 18 -281 24 -24
49 -26 76 -6 17 13 19 31 24 233 l5 218 153 3 c178 3 192 -1 192 -58 0 -52
-17 -60 -122 -60 -114 0 -151 -28 -118 -91 9 -16 22 -19 98 -19 50 0 98 -6
112 -13 23 -12 25 -19 30 -107 5 -89 6 -95 32 -109 21 -12 31 -13 52 -3 25 11
26 14 26 107 0 104 -14 149 -51 160 -20 7 -19 8 11 33 81 69 49 211 -60 260
-51 23 -426 30 -455 9z"/>
<path d="M9902 579 c-55 -11 -109 -44 -126 -78 -40 -77 -27 -159 33 -214 50
-45 106 -57 264 -57 82 0 127 -4 135 -12 20 -20 15 -76 -7 -88 -12 -6 -96 -10
-205 -10 -101 0 -196 -4 -210 -10 -34 -12 -43 -52 -21 -86 l17 -26 206 4 c192
3 210 5 254 26 61 30 91 77 91 145 1 69 -22 110 -81 144 -45 27 -55 28 -202
33 -85 3 -161 9 -167 13 -7 5 -13 26 -13 47 0 60 14 64 250 70 l205 5 3 40 c5
62 -5 65 -207 64 -97 -1 -195 -5 -219 -10z"/>
</g>
</svg>
