<?xml version="1.0" encoding="UTF-8"?>
<!DOCTYPE svg PUBLIC "-//W3C//DTD SVG 1.1//EN" "http://www.w3.org/Graphics/SVG/1.1/DTD/svg11.dtd">
<!-- Creator: CorelDRAW 2020 (64-Bit) -->
<svg xmlns="http://www.w3.org/2000/svg" xml:space="preserve" width="30.09cm" height="2.5cm" version="1.1" style="shape-rendering:geometricPrecision; text-rendering:geometricPrecision; image-rendering:optimizeQuality; fill-rule:evenodd; clip-rule:evenodd"
viewBox="0 0 30090 2500"
 xmlns:xlink="http://www.w3.org/1999/xlink"
 xmlns:xodm="http://www.corel.com/coreldraw/odm/2003">
 <defs>
  <style type="text/css">
   <![CDATA[
    .str0 {stroke:#105B9B;stroke-width:52.92;stroke-miterlimit:2.61313}
    .fil0 {fill:#105B9B;fill-rule:nonzero}
   ]]>
  </style>
 </defs>
 <g id="Capa_x0020_1">
  <metadata id="CorelCorpID_0Corel-Layer"/>
  <path class="fil0 str0" d="M1093.02 1482.55l-343.19 0 0 523.61c0,74.92 -17.65,131.33 -52.97,170.08 -35.31,38.76 -80.09,58.13 -133.48,58.13 -56.41,0 -102.06,-18.95 -136.5,-57.26 -34.45,-38.33 -51.67,-94.74 -51.67,-168.37l0 -1425.73c0,-82.24 18.94,-141.24 56.83,-176.54 37.9,-35.31 97.75,-52.97 180.43,-52.97l480.55 0c142.1,0 251.47,10.76 328.12,32.73 75.79,21.1 141.23,55.98 196.36,104.64 55.11,49.09 96.88,108.5 125.3,179.13 28.85,70.61 43.06,150.28 43.06,238.55 0,188.6 -58.14,331.14 -173.96,428.45 -116.27,96.89 -288.94,145.55 -518.88,145.55zm-90.86 -847.43l-252.33 0 0 565.81 252.33 0c88.28,0 162.34,-9.47 221.76,-27.99 59,-18.51 104.21,-48.66 135.64,-90.85 31.01,-41.78 46.51,-97.32 46.51,-165.35 0,-81.83 -24.11,-148.14 -71.91,-199.38 -53.83,-54.68 -164.5,-82.24 -332,-82.24zm1748.84 803.5l0 -889.19c0,-75.79 17.22,-132.19 51.23,-170.09 34.03,-37.89 78.81,-56.84 134.36,-56.84 57.7,0 103.77,18.95 137.79,56.84 34.02,37.9 51.24,94.73 51.24,170.09l0 909.86c0,103.35 11.63,189.89 34.88,259.22 22.82,69.34 64.16,123.15 122.72,161.48 58.99,38.33 141.25,57.27 247.17,57.27 146.4,0 249.74,-38.76 310.47,-116.7 60.71,-77.94 90.85,-195.91 90.85,-353.95l0 -917.18c0,-76.21 16.79,-133.49 50.38,-170.95 33.58,-37.46 78.8,-55.98 135.21,-55.98 55.98,0 101.62,18.52 136.5,55.98 34.88,37.46 52.53,94.74 52.53,170.95l0 889.19c0,144.68 -14.2,265.69 -42.2,362.14 -28.41,96.88 -81.38,181.72 -159.75,254.91 -67.17,62.01 -145.54,107.22 -234.68,136.07 -89.13,28.43 -193.34,42.63 -312.61,42.63 -142.1,0 -264.39,-15.5 -367.31,-46.06 -102.48,-30.58 -186.02,-78.38 -250.61,-142.54 -65.01,-64.16 -112.39,-146.83 -142.96,-247.17 -30.14,-100.33 -45.21,-220.46 -45.21,-359.98zm3829.07 -795.75l-843.98 0 0 454.72 777.23 0c57.28,0 99.91,12.91 127.9,38.32 28.42,25.4 42.2,59.42 42.2,101.19 0,41.77 -13.78,76.22 -41.34,102.48 -27.99,26.26 -70.62,39.61 -128.76,39.61l-777.23 0 0 527.06 872.84 0c58.99,0 103.34,13.79 133.05,40.91 30.14,27.13 45.21,63.73 45.21,108.94 0,43.5 -15.07,79.23 -45.21,106.36 -29.71,27.13 -74.06,40.91 -133.05,40.91l-1017.95 0c-81.39,0 -139.95,-18.08 -175.69,-54.26 -35.74,-36.16 -53.82,-94.72 -53.82,-175.25l0 -1390.85c0,-53.82 8.18,-97.74 24.11,-131.76 15.94,-34.01 40.9,-58.99 74.93,-74.49 34.01,-15.51 77.5,-23.26 130.47,-23.26l989.09 0c59.85,0 104.2,13.35 133.06,39.62 28.85,26.7 43.48,61.57 43.48,104.21 0,43.91 -14.63,79.23 -43.48,105.92 -28.86,26.27 -73.21,39.62 -133.06,39.62zm1944.76 1560.5l-565.39 0c-81.81,0 -139.93,-18.08 -174.81,-54.69 -34.88,-36.6 -52.53,-95.16 -52.53,-174.82l0 -1390.85c0,-81.38 18.08,-139.94 53.81,-175.68 35.75,-35.74 93.44,-53.83 173.53,-53.83l599.41 0c88.27,0 164.91,5.6 229.51,16.36 65.02,11.2 123.15,31.87 174.39,63.31 43.92,25.83 82.25,58.98 116.26,99.03 33.59,40.04 58.99,83.97 76.66,132.2 17.65,48.66 26.69,99.47 26.69,153.3 0,185.15 -92.58,320.8 -277.73,406.48 243.29,77.5 364.71,227.79 364.71,451.7 0,103.35 -26.7,196.79 -79.66,279.47 -52.96,83.1 -124.44,144.25 -214.44,183.43 -56.41,23.68 -120.99,40.48 -194.2,49.95 -73.21,9.91 -158.9,14.64 -256.21,14.64zm-27.99 -821.58l-390.13 0 0 539.96 402.62 0c253.63,0 380.22,-91.27 380.22,-273.85 0,-93.44 -32.72,-161.05 -98.61,-203.25 -65.45,-41.76 -163.63,-62.86 -294.1,-62.86zm-390.13 -746.67l0 477.97 343.63 0c93.44,0 165.35,-9.05 216.16,-26.7 51.24,-17.65 89.99,-51.25 117.12,-100.76 21.1,-35.31 31.43,-74.93 31.43,-118.42 0,-93.44 -33.15,-155.45 -99.89,-186.02 -66.32,-30.57 -167.94,-46.07 -304.01,-46.07l-304.44 0zm2502.83 -85.69l0 1346.49 759.58 0c60.28,0 106.79,14.65 139.09,43.93 32.73,29.71 48.66,66.74 48.66,111.09 0,45.21 -15.93,82.24 -47.8,110.24 -31.86,27.98 -78.8,42.19 -139.95,42.19l-904.69 0c-81.39,0 -139.95,-18.08 -175.69,-54.26 -35.74,-36.16 -53.83,-94.72 -53.83,-175.25l0 -1424.43c0,-75.36 17.23,-132.19 51.24,-170.09 34.03,-37.89 78.81,-56.84 134.36,-56.84 55.97,0 101.62,18.52 136.5,55.98 34.88,37.46 52.53,94.74 52.53,170.95zm2993.29 1444.23l-88.28 -232.09 -751.84 0 -88.27 236.84c-34.45,92.57 -63.73,155.02 -88.27,187.31 -24.12,32.3 -64.16,48.65 -119.71,48.65 -46.94,0 -88.7,-17.22 -124.87,-51.66 -36.18,-34.45 -54.26,-73.64 -54.26,-117.13 0,-25.41 4.3,-51.67 12.48,-78.37 8.62,-27.13 22.4,-64.16 41.78,-112.39l472.8 -1200.52c13.77,-34.45 29.71,-75.78 48.65,-124.01 18.95,-48.66 39.19,-88.7 60.72,-120.57 21.53,-31.86 49.52,-57.71 84.4,-77.51 34.88,-19.81 77.94,-29.71 129.18,-29.71 52.53,0 96.03,9.9 130.9,29.71 34.88,19.8 62.87,45.22 84.4,76.21 21.53,31.01 39.61,64.6 54.26,100.34 14.63,35.73 33.58,83.54 55.98,142.96l483.13 1193.2c37.89,90.86 56.84,156.74 56.84,198.08 0,42.63 -17.66,82.24 -53.39,117.98 -35.75,35.74 -79.24,53.39 -129.62,53.39 -29.28,0 -54.68,-5.17 -75.78,-15.93 -20.68,-10.33 -38.33,-24.54 -52.97,-42.63 -14.2,-18.08 -29.28,-46.07 -45.64,-83.11 -16.79,-37.46 -30.57,-70.61 -42.62,-99.04zm-741.51 -513.7l552.46 0 -278.59 -762.17 -273.87 762.17zm3336.47 444.38l-296.68 -1178.13 0 1276.31c0,70.62 -15.93,123.58 -47.38,158.89 -31.43,35.31 -73.19,52.96 -124.87,52.96 -50.38,0 -91.71,-17.65 -123.58,-52.53 -31.87,-34.88 -47.8,-87.84 -47.8,-159.32l0 -1463.19c0,-80.95 21.1,-135.21 62.88,-163.62 42.19,-28 99.03,-42.21 170.08,-42.21l116.27 0c69.76,0 120.14,6.46 151.57,18.95 31.43,12.49 55.11,35.31 70.19,68.04 15.07,32.73 32.29,86.12 51.66,160.18l268.71 1013.63 268.69 -1013.63c19.38,-74.06 36.59,-127.45 51.67,-160.18 15.07,-32.73 38.33,-55.55 69.76,-68.04 31.43,-12.49 82.24,-18.95 152,-18.95l115.84 0c71.48,0 128.31,14.21 170.52,42.21 41.76,28.41 62.86,82.67 62.86,163.62l0 1463.19c0,70.62 -15.93,123.58 -47.36,158.89 -31.44,35.31 -73.64,52.96 -126.17,52.96 -49.52,0 -90.43,-17.65 -122.29,-52.96 -31.87,-35.31 -47.8,-88.27 -47.8,-158.89l0 -1276.31 -296.68 1178.13c-19.38,76.22 -34.88,132.63 -47.37,168.36 -12.06,35.31 -34.45,68.04 -67.17,97.32 -33.16,29.72 -78.38,44.35 -136.5,44.35 -43.93,0 -80.96,-9.47 -111.11,-28.41 -30.13,-18.95 -53.82,-43.07 -70.61,-72.35 -16.8,-29.71 -30.14,-62.01 -39.61,-97.74 -9.91,-35.74 -19.81,-73.21 -29.72,-111.53zm2991.12 -1601.84c192.05,0 356.54,38.75 493.9,116.69 137.37,77.51 241.57,188.18 312.18,331.56 70.63,143.4 105.94,311.77 105.94,505.1 0,142.97 -19.38,273.01 -58.14,389.7 -38.75,117.12 -96.46,218.32 -173.96,304.01 -77.51,85.68 -172.24,151.14 -285.06,196.78 -112.82,45.21 -241.56,68.03 -387.11,68.03 -144.68,0 -274.29,-23.25 -388.41,-70.18 -114.54,-46.51 -209.7,-112.39 -286.34,-197.22 -76.65,-84.83 -134.35,-186.88 -173.53,-306.59 -39.19,-119.27 -58.57,-248.46 -58.57,-387.11 0,-142.1 20.24,-272.14 61.15,-390.99 40.9,-118.41 99.89,-219.18 177.4,-302.71 77.08,-83.11 171.38,-146.83 282.48,-190.76 110.66,-44.35 236.83,-66.31 378.07,-66.31zm532.23 950.77c0,-135.21 -21.97,-252.76 -65.46,-352.23 -43.92,-99.04 -106.36,-173.97 -187.31,-225.21 -80.95,-50.81 -174.39,-76.21 -279.46,-76.21 -74.49,0 -143.82,14.2 -207.13,42.19 -63.72,28.42 -118.4,69.33 -164.05,123.16 -45.64,53.83 -81.81,122.72 -108.51,206.26 -26.27,83.96 -39.62,177.83 -39.62,282.04 0,105.5 13.35,200.23 39.62,285.49 26.7,84.83 64.15,155.45 112.38,211.42 48.23,55.98 103.79,97.76 166.22,125.31 62.87,27.99 131.33,41.77 206.26,41.77 96.02,0 183.86,-24.11 264.39,-71.91 80.09,-47.8 143.82,-121.86 191.61,-222.19 47.38,-99.9 71.06,-223.49 71.06,-369.89zm2453.3 -609.74l-408.64 0 0 1342.63c0,77.51 -17.23,134.77 -52.11,172.23 -34.45,37.47 -79.23,55.98 -133.92,55.98 -55.55,0 -101.19,-18.95 -136.07,-56.83 -34.88,-37.9 -52.53,-94.74 -52.53,-171.38l0 -1342.63 -408.64 0c-64.16,0 -111.52,-14.2 -142.54,-42.19 -30.99,-28.42 -46.93,-65.88 -46.93,-112.39 0,-47.8 16.37,-85.69 48.66,-113.68 32.29,-27.99 79.23,-41.77 140.81,-41.77l1191.91 0c65.01,0 112.82,14.21 144.68,43.06 31.43,28.85 47.37,66.31 47.37,112.39 0,46.51 -16.37,83.97 -48.23,112.39 -31.87,27.99 -79.66,42.19 -143.82,42.19zm1842.71 -341.03c192.05,0 356.54,38.75 493.9,116.69 137.37,77.51 241.57,188.18 312.18,331.56 70.63,143.4 105.94,311.77 105.94,505.1 0,142.97 -19.38,273.01 -58.14,389.7 -38.75,117.12 -96.46,218.32 -173.97,304.01 -77.5,85.68 -172.23,151.14 -285.05,196.78 -112.82,45.21 -241.56,68.03 -387.11,68.03 -144.69,0 -274.29,-23.25 -388.41,-70.18 -114.54,-46.51 -209.7,-112.39 -286.34,-197.22 -76.66,-84.83 -134.35,-186.88 -173.53,-306.59 -39.2,-119.27 -58.58,-248.46 -58.58,-387.11 0,-142.1 20.25,-272.14 61.16,-390.99 40.9,-118.41 99.89,-219.18 177.4,-302.71 77.08,-83.11 171.38,-146.83 282.47,-190.76 110.67,-44.35 236.84,-66.31 378.08,-66.31zm532.23 950.77c0,-135.21 -21.97,-252.76 -65.46,-352.23 -43.92,-99.04 -106.36,-173.97 -187.31,-225.21 -80.95,-50.81 -174.39,-76.21 -279.46,-76.21 -74.49,0 -143.82,14.2 -207.13,42.19 -63.72,28.42 -118.41,69.33 -164.05,123.16 -45.64,53.83 -81.81,122.72 -108.51,206.26 -26.27,83.96 -39.62,177.83 -39.62,282.04 0,105.5 13.35,200.23 39.62,285.49 26.7,84.83 64.15,155.45 112.38,211.42 48.23,55.98 103.78,97.76 166.21,125.31 62.88,27.99 131.34,41.77 206.27,41.77 96.02,0 183.86,-24.11 264.38,-71.91 80.1,-47.8 143.82,-121.86 191.62,-222.19 47.37,-99.9 71.06,-223.49 71.06,-369.89zm1853.46 139.52l-131.33 0 0 593.37c0,78.36 -17.22,135.64 -51.67,172.67 -34.45,37.03 -79.67,55.54 -134.78,55.54 -59.85,0 -106.36,-19.37 -139.09,-58.13 -32.73,-38.75 -49.08,-95.16 -49.08,-170.08l0 -1423.15c0,-80.51 18.08,-139.08 54.25,-175.25 36.17,-36.17 94.74,-54.26 175.26,-54.26l609.3 0c83.96,0 155.87,3.45 215.73,10.76 59.85,7.33 113.68,21.54 161.47,43.5 58.14,24.54 109.37,59.42 154.17,104.64 44.34,45.64 78.36,98.6 101.19,158.46 23.25,60.28 34.88,124.01 34.88,191.62 0,137.79 -38.76,248.02 -116.71,330.7 -77.93,82.24 -195.91,140.8 -353.94,175.26 66.31,35.3 130.03,87.41 190.76,156.3 60.28,68.9 114.54,142.54 161.9,220.04 47.36,77.93 84.39,147.69 111.09,210.57 26.28,62.43 39.62,105.49 39.62,129.17 0,24.11 -7.76,48.23 -23.26,72.34 -15.5,24.12 -36.59,43.06 -63.72,56.85 -26.7,13.78 -58.13,20.66 -93.44,20.66 -41.77,0 -77.08,-9.9 -105.93,-29.7 -28.43,-19.81 -52.96,-44.79 -73.64,-74.93 -20.66,-30.14 -48.66,-74.92 -83.96,-133.48l-150.28 -249.76c-53.83,-91.29 -102.06,-161.05 -144.25,-208.84 -42.63,-48.23 -85.69,-80.96 -129.62,-98.61 -43.48,-17.65 -98.61,-26.26 -164.92,-26.26zm214.44 -777.67l-345.77 0 0 508.96 335.44 0c89.99,0 165.78,-7.75 227.36,-23.24 61.14,-15.5 108.08,-42.2 140.37,-79.66 32.3,-37.47 48.66,-89.14 48.66,-154.59 0,-51.68 -12.91,-96.89 -39.18,-136.07 -25.84,-39.19 -62.01,-68.47 -108.52,-87.84 -43.49,-18.52 -129.6,-27.56 -258.36,-27.56zm3195.67 1013.64c0,111.52 -28.86,211.85 -86.55,300.99 -57.28,89.14 -141.67,158.88 -252.76,209.27 -111.1,50.38 -242.87,75.35 -394.87,75.35 -182.57,0 -333.29,-34.45 -451.71,-102.91 -83.96,-49.52 -152,-115.83 -204.53,-198.51 -52.53,-82.67 -78.8,-163.2 -78.8,-241.56 0,-45.21 15.93,-83.97 47.37,-116.7 31.43,-32.3 71.48,-48.23 120.14,-48.23 39.61,0 72.76,12.5 99.89,37.9 27.56,24.97 50.81,62.44 70.19,112.38 23.25,58.57 49.1,108.09 76.23,147.27 27.55,39.61 65.87,72.34 115.39,98.18 49.96,25.41 114.97,38.32 195.93,38.32 110.67,0 201.09,-25.83 270.42,-77.51 69.32,-51.67 104.2,-116.26 104.2,-193.77 0,-61.58 -18.51,-111.53 -55.97,-149.42 -37.47,-38.32 -86.13,-67.6 -145.55,-87.84 -59,-20.24 -138.66,-41.77 -237.7,-64.59 -132.62,-31 -244.14,-67.6 -333.28,-108.94 -89.57,-41.77 -160.62,-98.61 -213.15,-170.52 -52.54,-71.91 -78.8,-161.05 -78.8,-268.27 0,-101.62 27.56,-192.05 83.11,-271.28 55.54,-78.8 136.07,-139.51 241.14,-182.14 105.07,-42.63 228.64,-63.73 370.74,-63.73 113.26,0 211.43,14.21 294.54,42.2 82.67,28.42 151.57,65.89 206.26,112.38 54.25,46.51 94.29,95.6 119.7,146.84 24.98,51.24 37.9,101.62 37.9,150.28 0,44.35 -15.93,84.83 -47.38,120.57 -31.43,35.74 -71.04,53.4 -117.97,53.4 -43.06,0 -75.36,-10.77 -97.75,-31.87 -22.39,-21.53 -46.5,-56.84 -72.35,-105.5 -34.01,-69.76 -74.06,-124.44 -121.42,-163.63 -46.94,-39.18 -122.72,-58.56 -227.36,-58.56 -96.46,0 -174.83,21.1 -233.82,63.74 -59.42,42.63 -89.13,93.44 -89.13,153.28 0,37.03 9.9,68.9 30.13,96.03 20.25,26.7 48.23,49.96 83.54,69.32 35.32,19.38 71.05,34.45 107.23,45.65 36.16,10.76 96.02,26.7 179.13,47.79 104.2,24.55 198.93,51.25 283.33,80.96 84.4,29.28 156.31,65.03 215.73,107.22 59.43,41.77 105.51,95.16 138.66,159.32 33.16,64.59 49.95,143.4 49.95,236.84z"/>
 </g>
</svg>
